<svg xmlns="http://www.w3.org/2000/svg" viewBox="0 0 800 520" role="img" aria-label="Agency dashboard mockup">
  <defs>
    <linearGradient id="hero-bg" x1="0%" y1="0%" x2="100%" y2="100%">
      <stop offset="0%" stop-color="#131b2e"/>
      <stop offset="100%" stop-color="#0b0f19"/>
    </linearGradient>
    <linearGradient id="hero-accent" x1="0%" y1="0%" x2="100%" y2="0%">
      <stop offset="0%" stop-color="#06b6d4"/>
      <stop offset="100%" stop-color="#8b5cf6"/>
    </linearGradient>
  </defs>
  <rect width="800" height="520" rx="16" fill="url(#hero-bg)"/>
  <rect x="24" y="24" width="752" height="48" rx="8" fill="#1e293b" stroke="rgba(255,255,255,0.08)"/>
  <circle cx="52" cy="48" r="8" fill="#06b6d4"/>
  <rect x="72" y="40" width="120" height="16" rx="4" fill="rgba(255,255,255,0.12)"/>
  <rect x="24" y="96" width="180" height="400" rx="8" fill="#1e293b" stroke="rgba(255,255,255,0.08)"/>
  <rect x="44" y="120" width="140" height="12" rx="3" fill="rgba(6,182,212,0.5)"/>
  <rect x="44" y="148" width="100" height="8" rx="2" fill="rgba(255,255,255,0.08)"/>
  <rect x="44" y="172" width="100" height="8" rx="2" fill="rgba(255,255,255,0.08)"/>
  <rect x="44" y="196" width="100" height="8" rx="2" fill="rgba(255,255,255,0.08)"/>
  <rect x="220" y="96" width="556" height="190" rx="8" fill="#1e293b" stroke="rgba(255,255,255,0.08)"/>
  <rect x="240" y="116" width="200" height="14" rx="3" fill="rgba(255,255,255,0.15)"/>
  <rect x="240" y="150" width="516" height="8" rx="2" fill="rgba(255,255,255,0.06)"/>
  <rect x="240" y="170" width="480" height="8" rx="2" fill="rgba(255,255,255,0.06)"/>
  <rect x="240" y="190" width="440" height="8" rx="2" fill="rgba(255,255,255,0.06)"/>
  <path d="M240 230 L756 230" stroke="rgba(255,255,255,0.06)" stroke-width="1"/>
  <rect x="240" y="250" width="80" height="24" rx="4" fill="url(#hero-accent)" opacity="0.8"/>
  <rect x="340" y="250" width="80" height="24" rx="4" fill="rgba(139,92,246,0.4)"/>
  <rect x="220" y="306" width="268" height="190" rx="8" fill="#1e293b" stroke="rgba(255,255,255,0.08)"/>
  <rect x="240" y="326" width="120" height="10" rx="2" fill="rgba(255,255,255,0.12)"/>
  <rect x="240" y="360" width="228" height="60" rx="6" fill="rgba(6,182,212,0.15)" stroke="rgba(6,182,212,0.3)"/>
  <rect x="508" y="306" width="268" height="190" rx="8" fill="#1e293b" stroke="rgba(255,255,255,0.08)"/>
  <rect x="528" y="326" width="120" height="10" rx="2" fill="rgba(255,255,255,0.12)"/>
  <circle cx="560" cy="400" r="40" fill="none" stroke="url(#hero-accent)" stroke-width="8" stroke-dasharray="180 80"/>
  <text x="560" y="408" text-anchor="middle" fill="#f8fafc" font-family="system-ui,sans-serif" font-size="18" font-weight="700">87%</text>
</svg>
