<svg xmlns="http://www.w3.org/2000/svg" viewBox="0 0 800 500" role="img" aria-label="WhatsApp chatbot mockup">
  <defs>
    <linearGradient id="chat-bg" x1="0%" y1="0%" x2="100%" y2="100%">
      <stop offset="0%" stop-color="#0d3320"/>
      <stop offset="100%" stop-color="#0b0f19"/>
    </linearGradient>
  </defs>
  <rect width="800" height="500" rx="12" fill="url(#chat-bg)"/>
  <rect x="200" y="24" width="400" height="452" rx="24" fill="#111827" stroke="rgba(255,255,255,0.1)"/>
  <rect x="200" y="24" width="400" height="64" rx="24" fill="#075e54"/>
  <rect x="200" y="64" width="400" height="24" fill="#075e54"/>
  <circle cx="248" cy="56" r="20" fill="#25d366"/>
  <text x="280" y="52" fill="white" font-family="system-ui,sans-serif" font-size="15" font-weight="600">Apex Dental Care</text>
  <text x="280" y="68" fill="rgba(255,255,255,0.7)" font-family="system-ui,sans-serif" font-size="11">online</text>
  <rect x="220" y="110" width="260" height="56" rx="12" fill="#1f2c34"/>
  <text x="236" y="134" fill="#e2e8f0" font-family="system-ui,sans-serif" font-size="13">Hi! I'd like to book a dental checkup.</text>
  <text x="236" y="154" fill="#64748b" font-family="system-ui,sans-serif" font-size="11">10:32 AM</text>
  <rect x="320" y="186" width="260" height="72" rx="12" fill="#005c4b"/>
  <text x="336" y="210" fill="#e2e8f0" font-family="system-ui,sans-serif" font-size="13">Sure! Available slots tomorrow:</text>
  <text x="336" y="232" fill="#e2e8f0" font-family="system-ui,sans-serif" font-size="13">" 10 AM  " 2 PM  " 4 PM</text>
  <text x="336" y="248" fill="rgba(255,255,255,0.5)" font-family="system-ui,sans-serif" font-size="11">10:32 AM</text>
  <rect x="220" y="278" width="200" height="40" rx="12" fill="#1f2c34"/>
  <text x="236" y="304" fill="#e2e8f0" font-family="system-ui,sans-serif" font-size="13">2 PM works for me</text>
  <rect x="300" y="338" width="280" height="88" rx="12" fill="#005c4b"/>
  <text x="316" y="362" fill="#e2e8f0" font-family="system-ui,sans-serif" font-size="13">Booked! Dr. Amit Patel &bull; 2 PM</text>
  <text x="316" y="384" fill="#e2e8f0" font-family="system-ui,sans-serif" font-size="13">Confirmation sent to your phone.</text>
  <text x="316" y="412" fill="rgba(255,255,255,0.5)" font-family="system-ui,sans-serif" font-size="11">10:33 AM</text>
  <rect x="220" y="448" width="360" height="1" fill="rgba(255,255,255,0.06)"/>
</svg>
